STARTFONT 2.1
FONT e12bluci
SIZE 10 78 78
FONTBOUNDINGBOX 11 11 0 -3
STARTPROPERTIES 4
Copyright "Copyright (c) 1988 AT&T, Inc"
FONT_ASCENT 8
FONT_DESCENT 3
DEFAULT_CHAR 32
ENDPROPERTIES
CHARS 97
STARTCHAR C001
ENCODING 1
SWIDTH 80 0
DWIDTH 8 0
BBX 8 11 0 -3
BITMAP
00
00
00
00
00
00
00
00
00
00
00
ENDCHAR
STARTCHAR C002
ENCODING 2
SWIDTH 110 0
DWIDTH 11 0
BBX 11 11 0 -3
BITMAP
0000
0000
3300
6600
4c00
1900
3300
6600
c000
0000
0000
ENDCHAR
STARTCHAR C040
ENCODING 32
SWIDTH 50 0
DWIDTH 5 0
BBX 5 11 0 -3
BITMAP
00
00
00
00
00
00
00
00
00
00
00
ENDCHAR
STARTCHAR !
ENCODING 33
SWIDTH 40 0
DWIDTH 4 0
BBX 4 11 0 -3
BITMAP
00
00
60
60
60
20
00
60
60
00
00
ENDCHAR
STARTCHAR "
ENCODING 34
SWIDTH 70 0
DWIDTH 7 0
BBX 7 11 0 -3
BITMAP
00
6c
6c
24
48
00
00
00
00
00
00
ENDCHAR
STARTCHAR #
ENCODING 35
SWIDTH 80 0
DWIDTH 8 0
BBX 8 11 0 -3
BITMAP
00
00
34
34
76
34
76
34
34
00
00
ENDCHAR
STARTCHAR $
ENCODING 36
SWIDTH 80 0
DWIDTH 8 0
BBX 8 11 0 -3
BITMAP
00
08
3e
68
68
3c
16
16
7c
10
00
ENDCHAR
STARTCHAR %
ENCODING 37
SWIDTH 110 0
DWIDTH 11 0
BBX 11 11 0 -3
BITMAP
0000
0000
3000
6900
3200
0400
0980
1340
0180
0000
0000
ENDCHAR
STARTCHAR &
ENCODING 38
SWIDTH 80 0
DWIDTH 8 0
BBX 8 11 0 -3
BITMAP
00
00
38
6c
38
3a
6c
66
3a
00
00
ENDCHAR
STARTCHAR '
ENCODING 39
SWIDTH 40 0
DWIDTH 4 0
BBX 4 11 0 -3
BITMAP
00
60
60
20
40
00
00
00
00
00
00
ENDCHAR
STARTCHAR (
ENCODING 40
SWIDTH 50 0
DWIDTH 5 0
BBX 5 11 0 -3
BITMAP
00
10
30
60
60
60
60
60
30
10
00
ENDCHAR
STARTCHAR )
ENCODING 41
SWIDTH 40 0
DWIDTH 4 0
BBX 4 11 0 -3
BITMAP
00
80
c0
60
60
60
60
60
c0
80
00
ENDCHAR
STARTCHAR *
ENCODING 42
SWIDTH 60 0
DWIDTH 6 0
BBX 6 11 0 -3
BITMAP
00
00
d8
60
d8
00
00
00
00
00
00
ENDCHAR
STARTCHAR +
ENCODING 43
SWIDTH 70 0
DWIDTH 7 0
BBX 7 11 0 -3
BITMAP
00
00
00
10
10
7c
10
10
00
00
00
ENDCHAR
STARTCHAR ,
ENCODING 44
SWIDTH 40 0
DWIDTH 4 0
BBX 4 11 0 -3
BITMAP
00
00
00
00
00
00
00
60
60
20
40
ENDCHAR
STARTCHAR -
ENCODING 45
SWIDTH 40 0
DWIDTH 4 0
BBX 4 11 0 -3
BITMAP
00
00
00
00
00
60
00
00
00
00
00
ENDCHAR
STARTCHAR .
ENCODING 46
SWIDTH 40 0
DWIDTH 4 0
BBX 4 11 0 -3
BITMAP
00
00
00
00
00
00
00
60
60
00
00
ENDCHAR
STARTCHAR /
ENCODING 47
SWIDTH 70 0
DWIDTH 7 0
BBX 7 11 0 -3
BITMAP
00
00
0c
0c
18
18
30
60
60
00
00
ENDCHAR
STARTCHAR 0
ENCODING 48
SWIDTH 80 0
DWIDTH 8 0
BBX 8 11 0 -3
BITMAP
00
00
3c
66
66
66
66
66
3c
00
00
ENDCHAR
STARTCHAR 1
ENCODING 49
SWIDTH 80 0
DWIDTH 8 0
BBX 8 11 0 -3
BITMAP
00
00
0c
3c
0c
0c
0c
0c
0c
00
00
ENDCHAR
STARTCHAR 2
ENCODING 50
SWIDTH 80 0
DWIDTH 8 0
BBX 8 11 0 -3
BITMAP
00
00
3c
66
06
1c
30
60
7e
00
00
ENDCHAR
STARTCHAR 3
ENCODING 51
SWIDTH 80 0
DWIDTH 8 0
BBX 8 11 0 -3
BITMAP
00
00
3c
66
06
1c
06
66
3c
00
00
ENDCHAR
STARTCHAR 4
ENCODING 52
SWIDTH 80 0
DWIDTH 8 0
BBX 8 11 0 -3
BITMAP
00
00
0c
1c
2c
4c
7e
0c
0c
00
00
ENDCHAR
STARTCHAR 5
ENCODING 53
SWIDTH 80 0
DWIDTH 8 0
BBX 8 11 0 -3
BITMAP
00
00
7e
60
60
7c
06
66
3c
00
00
ENDCHAR
STARTCHAR 6
ENCODING 54
SWIDTH 80 0
DWIDTH 8 0
BBX 8 11 0 -3
BITMAP
00
00
3c
66
60
7c
66
66
3c
00
00
ENDCHAR
STARTCHAR 7
ENCODING 55
SWIDTH 80 0
DWIDTH 8 0
BBX 8 11 0 -3
BITMAP
00
00
7e
7e
06
0c
18
30
30
00
00
ENDCHAR
STARTCHAR 8
ENCODING 56
SWIDTH 80 0
DWIDTH 8 0
BBX 8 11 0 -3
BITMAP
00
00
3c
66
66
3c
66
66
3c
00
00
ENDCHAR
STARTCHAR 9
ENCODING 57
SWIDTH 80 0
DWIDTH 8 0
BBX 8 11 0 -3
BITMAP
00
00
3c
66
66
3e
06
66
3c
00
00
ENDCHAR
STARTCHAR :
ENCODING 58
SWIDTH 40 0
DWIDTH 4 0
BBX 4 11 0 -3
BITMAP
00
00
00
60
60
00
00
60
60
00
00
ENDCHAR
STARTCHAR ;
ENCODING 59
SWIDTH 40 0
DWIDTH 4 0
BBX 4 11 0 -3
BITMAP
00
00
00
60
60
00
00
60
60
20
40
ENDCHAR
STARTCHAR <
ENCODING 60
SWIDTH 60 0
DWIDTH 6 0
BBX 6 11 0 -3
BITMAP
00
00
00
18
30
60
30
18
00
00
00
ENDCHAR
STARTCHAR =
ENCODING 61
SWIDTH 70 0
DWIDTH 7 0
BBX 7 11 0 -3
BITMAP
00
00
00
00
7c
00
7c
00
00
00
00
ENDCHAR
STARTCHAR >
ENCODING 62
SWIDTH 70 0
DWIDTH 7 0
BBX 7 11 0 -3
BITMAP
00
00
00
30
18
0c
18
30
00
00
00
ENDCHAR
STARTCHAR ?
ENCODING 63
SWIDTH 70 0
DWIDTH 7 0
BBX 7 11 0 -3
BITMAP
00
00
78
0c
0c
38
00
30
30
00
00
ENDCHAR
STARTCHAR @
ENCODING 64
SWIDTH 90 0
DWIDTH 9 0
BBX 9 11 0 -3
BITMAP
0000
0000
3c00
6600
4e00
5600
4f00
6000
3e00
0000
0000
ENDCHAR
STARTCHAR A
ENCODING 65
SWIDTH 80 0
DWIDTH 8 0
BBX 8 11 0 -3
BITMAP
00
00
18
18
2c
2c
7e
46
46
00
00
ENDCHAR
STARTCHAR B
ENCODING 66
SWIDTH 70 0
DWIDTH 7 0
BBX 7 11 0 -3
BITMAP
00
00
78
6c
6c
78
6c
6c
78
00
00
ENDCHAR
STARTCHAR C
ENCODING 67
SWIDTH 80 0
DWIDTH 8 0
BBX 8 11 0 -3
BITMAP
00
00
1e
30
60
60
60
30
1e
00
00
ENDCHAR
STARTCHAR D
ENCODING 68
SWIDTH 80 0
DWIDTH 8 0
BBX 8 11 0 -3
BITMAP
00
00
78
6c
66
66
66
6c
78
00
00
ENDCHAR
STARTCHAR E
ENCODING 69
SWIDTH 70 0
DWIDTH 7 0
BBX 7 11 0 -3
BITMAP
00
00
7c
60
60
78
60
60
7c
00
00
ENDCHAR
STARTCHAR F
ENCODING 70
SWIDTH 70 0
DWIDTH 7 0
BBX 7 11 0 -3
BITMAP
00
00
7c
60
60
78
60
60
60
00
00
ENDCHAR
STARTCHAR G
ENCODING 71
SWIDTH 80 0
DWIDTH 8 0
BBX 8 11 0 -3
BITMAP
00
00
1e
30
60
66
66
36
1e
00
00
ENDCHAR
STARTCHAR H
ENCODING 72
SWIDTH 80 0
DWIDTH 8 0
BBX 8 11 0 -3
BITMAP
00
00
66
66
66
7e
66
66
66
00
00
ENDCHAR
STARTCHAR I
ENCODING 73
SWIDTH 40 0
DWIDTH 4 0
BBX 4 11 0 -3
BITMAP
00
00
60
60
60
60
60
60
60
00
00
ENDCHAR
STARTCHAR J
ENCODING 74
SWIDTH 50 0
DWIDTH 5 0
BBX 5 11 0 -3
BITMAP
00
00
30
30
30
30
30
30
30
30
e0
ENDCHAR
STARTCHAR K
ENCODING 75
SWIDTH 80 0
DWIDTH 8 0
BBX 8 11 0 -3
BITMAP
00
00
66
6c
68
78
6c
66
66
00
00
ENDCHAR
STARTCHAR L
ENCODING 76
SWIDTH 70 0
DWIDTH 7 0
BBX 7 11 0 -3
BITMAP
00
00
60
60
60
60
60
60
7c
00
00
ENDCHAR
STARTCHAR M
ENCODING 77
SWIDTH 100 0
DWIDTH 10 0
BBX 10 11 0 -3
BITMAP
0000
0000
6180
7380
7b80
5d80
4980
4980
4180
0000
0000
ENDCHAR
STARTCHAR N
ENCODING 78
SWIDTH 80 0
DWIDTH 8 0
BBX 8 11 0 -3
BITMAP
00
00
62
72
7a
5e
4e
46
42
00
00
ENDCHAR
STARTCHAR O
ENCODING 79
SWIDTH 90 0
DWIDTH 9 0
BBX 9 11 0 -3
BITMAP
0000
0000
1c00
3600
6300
6300
6300
3600
1c00
0000
0000
ENDCHAR
STARTCHAR P
ENCODING 80
SWIDTH 70 0
DWIDTH 7 0
BBX 7 11 0 -3
BITMAP
00
00
78
6c
6c
78
60
60
60
00
00
ENDCHAR
STARTCHAR Q
ENCODING 81
SWIDTH 90 0
DWIDTH 9 0
BBX 9 11 0 -3
BITMAP
0000
0000
1c00
3600
6300
6300
6300
3600
1c00
0600
0300
ENDCHAR
STARTCHAR R
ENCODING 82
SWIDTH 80 0
DWIDTH 8 0
BBX 8 11 0 -3
BITMAP
00
00
78
6c
6c
78
6c
66
66
00
00
ENDCHAR
STARTCHAR S
ENCODING 83
SWIDTH 70 0
DWIDTH 7 0
BBX 7 11 0 -3
BITMAP
00
00
3c
60
70
38
1c
0c
78
00
00
ENDCHAR
STARTCHAR T
ENCODING 84
SWIDTH 80 0
DWIDTH 8 0
BBX 8 11 0 -3
BITMAP
00
00
7e
18
18
18
18
18
18
00
00
ENDCHAR
STARTCHAR U
ENCODING 85
SWIDTH 80 0
DWIDTH 8 0
BBX 8 11 0 -3
BITMAP
00
00
66
66
66
66
66
66
3c
00
00
ENDCHAR
STARTCHAR V
ENCODING 86
SWIDTH 80 0
DWIDTH 8 0
BBX 8 11 0 -3
BITMAP
00
00
66
66
66
34
34
18
18
00
00
ENDCHAR
STARTCHAR W
ENCODING 87
SWIDTH 110 0
DWIDTH 11 0
BBX 11 11 0 -3
BITMAP
0000
0000
60c0
64c0
64c0
3680
3680
1b00
1b00
0000
0000
ENDCHAR
STARTCHAR X
ENCODING 88
SWIDTH 70 0
DWIDTH 7 0
BBX 7 11 0 -3
BITMAP
00
00
6c
6c
38
10
38
6c
6c
00
00
ENDCHAR
STARTCHAR Y
ENCODING 89
SWIDTH 80 0
DWIDTH 8 0
BBX 8 11 0 -3
BITMAP
00
00
66
66
34
18
18
18
18
00
00
ENDCHAR
STARTCHAR Z
ENCODING 90
SWIDTH 70 0
DWIDTH 7 0
BBX 7 11 0 -3
BITMAP
00
00
7c
0c
18
30
60
60
7c
00
00
ENDCHAR
STARTCHAR [
ENCODING 91
SWIDTH 50 0
DWIDTH 5 0
BBX 5 11 0 -3
BITMAP
00
70
60
60
60
60
60
60
60
70
00
ENDCHAR
STARTCHAR \
ENCODING 92
SWIDTH 70 0
DWIDTH 7 0
BBX 7 11 0 -3
BITMAP
00
00
60
60
30
30
18
0c
0c
00
00
ENDCHAR
STARTCHAR ]
ENCODING 93
SWIDTH 40 0
DWIDTH 4 0
BBX 4 11 0 -3
BITMAP
00
e0
60
60
60
60
60
60
60
e0
00
ENDCHAR
STARTCHAR ^
ENCODING 94
SWIDTH 80 0
DWIDTH 8 0
BBX 8 11 0 -3
BITMAP
00
00
18
18
2c
2c
46
46
00
00
00
ENDCHAR
STARTCHAR _
ENCODING 95
SWIDTH 60 0
DWIDTH 6 0
BBX 6 11 0 -3
BITMAP
00
00
00
00
00
00
00
00
00
00
78
ENDCHAR
STARTCHAR `
ENCODING 96
SWIDTH 30 0
DWIDTH 3 0
BBX 3 11 0 -3
BITMAP
00
40
80
c0
c0
00
00
00
00
00
00
ENDCHAR
STARTCHAR a
ENCODING 97
SWIDTH 70 0
DWIDTH 7 0
BBX 7 11 0 -3
BITMAP
00
00
00
70
18
78
d8
d8
6c
00
00
ENDCHAR
STARTCHAR b
ENCODING 98
SWIDTH 70 0
DWIDTH 7 0
BBX 7 11 0 -3
BITMAP
00
60
60
78
6c
6c
6c
6c
78
00
00
ENDCHAR
STARTCHAR c
ENCODING 99
SWIDTH 70 0
DWIDTH 7 0
BBX 7 11 0 -3
BITMAP
00
00
00
3c
60
60
60
60
3c
00
00
ENDCHAR
STARTCHAR d
ENCODING 100
SWIDTH 70 0
DWIDTH 7 0
BBX 7 11 0 -3
BITMAP
00
0c
0c
3c
6c
6c
6c
6c
34
00
00
ENDCHAR
STARTCHAR e
ENCODING 101
SWIDTH 70 0
DWIDTH 7 0
BBX 7 11 0 -3
BITMAP
00
00
00
38
6c
6c
7c
60
3c
00
00
ENDCHAR
STARTCHAR f
ENCODING 102
SWIDTH 60 0
DWIDTH 6 0
BBX 6 11 0 -3
BITMAP
00
38
60
f8
60
60
60
60
60
00
00
ENDCHAR
STARTCHAR g
ENCODING 103
SWIDTH 70 0
DWIDTH 7 0
BBX 7 11 0 -3
BITMAP
00
00
00
3c
6c
6c
6c
6c
3c
0c
78
ENDCHAR
STARTCHAR h
ENCODING 104
SWIDTH 70 0
DWIDTH 7 0
BBX 7 11 0 -3
BITMAP
00
60
60
68
7c
6c
6c
6c
6c
00
00
ENDCHAR
STARTCHAR i
ENCODING 105
SWIDTH 40 0
DWIDTH 4 0
BBX 4 11 0 -3
BITMAP
00
60
00
60
60
60
60
60
60
00
00
ENDCHAR
STARTCHAR j
ENCODING 106
SWIDTH 50 0
DWIDTH 5 0
BBX 5 11 0 -3
BITMAP
00
30
00
30
30
30
30
30
30
30
e0
ENDCHAR
STARTCHAR k
ENCODING 107
SWIDTH 80 0
DWIDTH 8 0
BBX 8 11 0 -3
BITMAP
00
60
60
64
68
70
78
6c
66
00
00
ENDCHAR
STARTCHAR l
ENCODING 108
SWIDTH 40 0
DWIDTH 4 0
BBX 4 11 0 -3
BITMAP
00
60
60
60
60
60
60
60
60
00
00
ENDCHAR
STARTCHAR m
ENCODING 109
SWIDTH 100 0
DWIDTH 10 0
BBX 10 11 0 -3
BITMAP
0000
0000
0000
5b00
6d80
6d80
6d80
6d80
6d80
0000
0000
ENDCHAR
STARTCHAR n
ENCODING 110
SWIDTH 70 0
DWIDTH 7 0
BBX 7 11 0 -3
BITMAP
00
00
00
58
6c
6c
6c
6c
6c
00
00
ENDCHAR
STARTCHAR o
ENCODING 111
SWIDTH 70 0
DWIDTH 7 0
BBX 7 11 0 -3
BITMAP
00
00
00
38
6c
6c
6c
6c
38
00
00
ENDCHAR
STARTCHAR p
ENCODING 112
SWIDTH 70 0
DWIDTH 7 0
BBX 7 11 0 -3
BITMAP
00
00
00
58
6c
6c
6c
6c
78
60
60
ENDCHAR
STARTCHAR q
ENCODING 113
SWIDTH 70 0
DWIDTH 7 0
BBX 7 11 0 -3
BITMAP
00
00
00
3c
6c
6c
6c
6c
3c
0c
0c
ENDCHAR
STARTCHAR r
ENCODING 114
SWIDTH 60 0
DWIDTH 6 0
BBX 6 11 0 -3
BITMAP
00
00
00
68
78
60
60
60
60
00
00
ENDCHAR
STARTCHAR s
ENCODING 115
SWIDTH 60 0
DWIDTH 6 0
BBX 6 11 0 -3
BITMAP
00
00
00
38
60
70
38
18
70
00
00
ENDCHAR
STARTCHAR t
ENCODING 116
SWIDTH 50 0
DWIDTH 5 0
BBX 5 11 0 -3
BITMAP
00
00
60
f0
60
60
60
60
30
00
00
ENDCHAR
STARTCHAR u
ENCODING 117
SWIDTH 70 0
DWIDTH 7 0
BBX 7 11 0 -3
BITMAP
00
00
00
6c
6c
6c
6c
6c
34
00
00
ENDCHAR
STARTCHAR v
ENCODING 118
SWIDTH 80 0
DWIDTH 8 0
BBX 8 11 0 -3
BITMAP
00
00
00
66
66
34
34
18
18
00
00
ENDCHAR
STARTCHAR w
ENCODING 119
SWIDTH 90 0
DWIDTH 9 0
BBX 9 11 0 -3
BITMAP
0000
0000
0000
6100
6d00
6d00
6d00
3600
3600
0000
0000
ENDCHAR
STARTCHAR x
ENCODING 120
SWIDTH 60 0
DWIDTH 6 0
BBX 6 11 0 -3
BITMAP
00
00
00
68
68
30
30
58
58
00
00
ENDCHAR
STARTCHAR y
ENCODING 121
SWIDTH 80 0
DWIDTH 8 0
BBX 8 11 0 -3
BITMAP
00
00
00
66
66
34
34
18
18
10
30
ENDCHAR
STARTCHAR z
ENCODING 122
SWIDTH 60 0
DWIDTH 6 0
BBX 6 11 0 -3
BITMAP
00
00
00
78
18
30
60
60
78
00
00
ENDCHAR
STARTCHAR {
ENCODING 123
SWIDTH 50 0
DWIDTH 5 0
BBX 5 11 0 -3
BITMAP
00
30
60
60
20
c0
20
60
60
30
00
ENDCHAR
STARTCHAR |
ENCODING 124
SWIDTH 40 0
DWIDTH 4 0
BBX 4 11 0 -3
BITMAP
00
00
60
60
60
60
60
60
60
60
00
ENDCHAR
STARTCHAR }
ENCODING 125
SWIDTH 50 0
DWIDTH 5 0
BBX 5 11 0 -3
BITMAP
00
c0
60
60
40
30
40
60
60
c0
00
ENDCHAR
STARTCHAR ~
ENCODING 126
SWIDTH 80 0
DWIDTH 8 0
BBX 8 11 0 -3
BITMAP
00
00
00
00
3a
5c
00
00
00
00
00
ENDCHAR
ENDFONT
